<svg width="378" height="84" viewBox="0 0 378 84" fill="none" xmlns="http://www.w3.org/2000/svg">
<rect width="378" height="84" rx="14" fill="#121213"/>
<path d="M77.225 40.77L76.945 49.1C76.945 51.97 77.1783 54.385 77.645 56.345C78.135 58.305 79.0333 59.6583 80.34 60.405C78.73 61.4083 77.0967 61.91 75.44 61.91C72.5233 61.91 70.7267 59.5533 70.05 54.84H62.91C62.4667 56.3567 62.245 57.5233 62.245 58.34C62.245 59.1333 62.3383 59.775 62.525 60.265C60.7983 61.3617 59.2583 61.91 57.905 61.91C55.8283 61.91 54.79 60.65 54.79 58.13C54.79 56.87 55.175 55.2833 55.945 53.37C56.7383 51.4567 57.7767 49.2633 59.06 46.79C60.3667 44.3167 61.195 42.6833 61.545 41.89C61.2883 40.63 60.9967 39.3933 60.67 38.18C61.8833 37.34 63.05 36.71 64.17 36.29C65.3133 35.8467 66.5383 35.625 67.845 35.625C69.175 35.625 70.0967 35.9167 70.61 36.5C71.94 35.9167 73.0367 35.625 73.9 35.625C74.7633 35.625 75.405 35.765 75.825 36.045C76.245 36.325 76.5483 36.7333 76.735 37.27C77.0617 38.2033 77.225 39.37 77.225 40.77ZM70.19 41.575H69.07C66.97 45.635 65.4067 48.8317 64.38 51.165H69.805C69.805 48.6217 69.9333 45.425 70.19 41.575ZM90.368 53.335C90.228 54.175 90.158 54.8167 90.158 55.26C90.158 57.5233 90.508 59.215 91.208 60.335C89.808 61.385 88.3497 61.91 86.833 61.91C85.3164 61.91 84.2314 61.4783 83.578 60.615C82.9247 59.7283 82.598 58.4217 82.598 56.695C82.598 54.945 83.333 50.01 84.803 41.89L82.948 38.145C85.5847 36.4417 87.988 35.59 90.158 35.59C90.7647 35.59 91.4297 35.7067 92.153 35.94C92.8764 36.15 93.3897 36.395 93.693 36.675C95.4197 35.9983 97.018 35.66 98.488 35.66C100.681 35.66 102.408 36.43 103.668 37.97C104.951 39.4867 105.593 41.33 105.593 43.5C105.593 46.1133 104.648 48.4467 102.758 50.5C101.848 51.5033 100.623 52.3083 99.083 52.915C97.543 53.5217 95.968 53.825 94.358 53.825C92.7714 53.825 91.4414 53.6617 90.368 53.335ZM91.033 49.345C91.3597 49.415 91.698 49.45 92.048 49.45C93.5414 49.45 94.8714 48.925 96.038 47.875C97.2047 46.825 97.788 45.53 97.788 43.99C97.788 42.9167 97.473 42.0067 96.843 41.26C96.2364 40.5133 95.373 40.14 94.253 40.14C93.7864 40.14 93.2497 40.2333 92.643 40.42C92.1764 43.6167 91.6397 46.5917 91.033 49.345ZM112.096 61.91C110.579 61.91 109.494 61.4783 108.841 60.615C108.188 59.7283 107.861 58.4217 107.861 56.695C107.861 54.945 108.596 50.01 110.066 41.89L108.211 38.145C110.848 36.4417 113.251 35.59 115.421 35.59C117.218 35.59 118.116 36.6867 118.116 38.88C118.116 39.6033 117.661 42.2983 116.751 46.965C115.864 51.6083 115.421 54.3733 115.421 55.26C115.421 57.5233 115.771 59.215 116.471 60.335C115.071 61.385 113.613 61.91 112.096 61.91ZM123.285 54.595C121.815 54.595 121.08 53.7433 121.08 52.04C121.08 50.8033 121.407 49.4733 122.06 48.05C122.55 48.2133 123.262 48.295 124.195 48.295C125.152 48.295 126.669 47.9217 128.745 47.175C130.845 46.4283 132.432 46.055 133.505 46.055C134.975 46.055 135.71 46.9067 135.71 48.61C135.71 49.8467 135.384 51.1767 134.73 52.6C134.24 52.4367 133.517 52.355 132.56 52.355C131.627 52.355 130.11 52.7283 128.01 53.475C125.934 54.2217 124.359 54.595 123.285 54.595ZM138.101 41.68C138.101 39.79 138.591 38.3667 139.571 37.41C140.551 36.4533 141.718 35.975 143.071 35.975C144.448 35.975 146.315 36.2083 148.671 36.675C151.028 37.1417 152.801 37.3867 153.991 37.41C155.975 37.0367 157.865 36.5817 159.661 36.045C159.848 36.6517 159.941 37.41 159.941 38.32C159.941 40.21 159.393 41.6333 158.296 42.59C157.223 43.5467 155.846 44.025 154.166 44.025C153.746 44.025 153.186 44.0017 152.486 43.955C151.203 50.6983 150.561 54.4667 150.561 55.26C150.561 57.5233 150.911 59.215 151.611 60.335C150.211 61.385 148.753 61.91 147.236 61.91C145.72 61.91 144.635 61.4783 143.981 60.615C143.328 59.7283 143.001 58.4217 143.001 56.695C143.001 54.945 143.678 50.3017 145.031 42.765C142.395 43.115 140.178 43.5117 138.381 43.955C138.195 43.3717 138.101 42.6133 138.101 41.68ZM171.322 56.695L170.972 56.52C170.342 58.2 169.432 59.5183 168.242 60.475C167.075 61.4083 165.769 61.875 164.322 61.875C162.339 61.875 160.752 61.1283 159.562 59.635C158.372 58.1417 157.777 56.1467 157.777 53.65C157.777 49.7767 159.072 46.5333 161.662 43.92C164.275 41.3067 167.519 40 171.392 40C172.395 40 173.317 40.0933 174.157 40.28C174.297 40.9333 174.379 41.505 174.402 41.995C175.569 41.2483 176.77 40.875 178.007 40.875C179.71 40.875 180.562 41.7967 180.562 43.64C180.562 44.2933 180.189 46.265 179.442 49.555C178.719 52.845 178.357 55.2833 178.357 56.87C178.357 58.4567 178.719 59.5533 179.442 60.16C178.135 61.3033 176.77 61.875 175.347 61.875C173.947 61.875 172.92 61.455 172.267 60.615C171.637 59.775 171.322 58.4683 171.322 56.695ZM164.357 51.935C164.357 53.0783 164.59 53.965 165.057 54.595C165.547 55.2017 166.235 55.505 167.122 55.505C168.009 55.505 168.884 55.1783 169.747 54.525C170.61 53.8717 171.334 52.9733 171.917 51.83C172.127 49.4733 172.582 46.685 173.282 43.465C170.925 43.465 168.849 44.3167 167.052 46.02C165.255 47.7233 164.357 49.695 164.357 51.935ZM195.238 44.655C194.375 44.9117 193.687 45.285 193.173 45.775C192.66 46.2417 192.205 46.9183 191.808 47.805C195.752 48.3883 198.528 49.2283 200.138 50.325C201.748 51.4217 202.553 52.985 202.553 55.015C202.553 56.2983 202.192 57.4183 201.468 58.375C200.745 59.3083 199.835 60.02 198.738 60.51C196.592 61.42 194.48 61.875 192.403 61.875C186.5 61.875 183.548 60.6033 183.548 58.06C183.548 56.7767 184.12 55.4933 185.263 54.21C185.847 55.0267 186.722 55.7267 187.888 56.31C189.078 56.8933 190.233 57.185 191.353 57.185C193.29 57.185 194.457 56.3333 194.853 54.63C191.307 54.21 188.74 53.4167 187.153 52.25C185.567 51.0833 184.773 49.4383 184.773 47.315C184.773 45.635 185.322 44.2233 186.418 43.08C187.538 41.9367 188.915 41.1433 190.548 40.7C192.205 40.2333 194.06 40 196.113 40C198.19 40 199.893 40.3967 201.223 41.19C202.577 41.96 203.253 42.905 203.253 44.025C203.253 45.145 202.857 46.0083 202.063 46.615C201.293 47.2217 200.442 47.525 199.508 47.525C198.598 47.525 197.758 47.28 196.988 46.79C196.242 46.3 195.658 45.5883 195.238 44.655ZM209.679 39.23L207.719 36.43C210.635 34.7267 212.934 33.875 214.614 33.875C215.57 33.875 216.247 34.0733 216.644 34.47C217.04 34.8433 217.239 35.485 217.239 36.395C217.239 37.2817 217.087 38.53 216.784 40.14C216.504 41.75 216.119 43.6517 215.629 45.845C215.162 48.0383 214.824 49.8 214.614 51.13L216.819 49.17C217.029 48.9833 217.367 48.6917 217.834 48.295C218.324 47.875 218.662 47.5717 218.849 47.385C219.059 47.1983 219.339 46.9417 219.689 46.615C220.039 46.265 220.295 45.9733 220.459 45.74C220.622 45.5067 220.809 45.2383 221.019 44.935C221.345 44.4217 221.509 43.85 221.509 43.22C221.509 42.5667 221.415 41.995 221.229 41.505C222.885 40.5017 224.449 40 225.919 40C226.899 40 227.68 40.315 228.264 40.945C228.847 41.5517 229.139 42.4383 229.139 43.605C229.139 44.7717 228.602 45.95 227.529 47.14C226.479 48.3067 225.172 49.3333 223.609 50.22C224.332 52.6233 225.265 54.8283 226.409 56.835C227.552 58.8417 228.509 60.0433 229.279 60.44C228.345 61.3967 226.899 61.875 224.939 61.875C223.492 61.875 222.267 61.385 221.264 60.405C220.284 59.425 219.409 57.815 218.639 55.575L217.764 53.09L214.159 54.875C214.135 55.1317 214.124 55.5167 214.124 56.03C214.124 57.9667 214.485 59.3433 215.209 60.16C213.575 61.3033 212.094 61.875 210.764 61.875C209.434 61.875 208.454 61.4433 207.824 60.58C207.217 59.6933 206.914 58.48 206.914 56.94C206.914 55.4 207.345 52.25 208.209 47.49C209.072 42.73 209.562 39.9767 209.679 39.23ZM234.096 54.595C232.626 54.595 231.891 53.7433 231.891 52.04C231.891 50.8033 232.217 49.4733 232.871 48.05C233.361 48.2133 234.072 48.295 235.006 48.295C235.962 48.295 237.479 47.9217 239.556 47.175C241.656 46.4283 243.242 46.055 244.316 46.055C245.786 46.055 246.521 46.9067 246.521 48.61C246.521 49.8467 246.194 51.1767 245.541 52.6C245.051 52.4367 244.327 52.355 243.371 52.355C242.437 52.355 240.921 52.7283 238.821 53.475C236.744 54.2217 235.169 54.595 234.096 54.595ZM254.827 61.91C253.287 61.91 252.19 61.4783 251.537 60.615C250.884 59.7283 250.557 58.4217 250.557 56.695C250.557 54.945 251.292 50.01 252.762 41.89L250.907 38.145C253.544 36.4417 255.947 35.59 258.117 35.59C259.914 35.59 260.812 36.6867 260.812 38.88C260.812 39.5333 260.357 42.2633 259.447 47.07C258.56 51.8767 258.117 54.9333 258.117 56.24H261.897C263.67 55.9833 265.455 55.5283 267.252 54.875C267.392 55.295 267.462 55.8667 267.462 56.59C267.462 57.9667 267.054 59.1917 266.237 60.265C265.444 61.3383 264.335 61.875 262.912 61.875C261.955 61.875 260.299 61.6183 257.942 61.105C256.962 61.6417 255.924 61.91 254.827 61.91ZM280.896 34.47C280.896 35.3567 280.429 36.1267 279.496 36.78C278.563 37.41 277.501 37.725 276.311 37.725C275.121 37.725 274.176 37.4917 273.476 37.025C272.799 36.5583 272.461 35.9283 272.461 35.135C272.461 34.0617 272.963 33.2217 273.966 32.615C274.969 32.0083 276.031 31.705 277.151 31.705C278.271 31.705 279.169 31.9383 279.846 32.405C280.546 32.8717 280.896 33.56 280.896 34.47ZM274.071 61.875C272.624 61.875 271.574 61.5133 270.921 60.79C270.268 60.0667 269.941 58.97 269.941 57.5C269.941 56.0067 270.688 52.0283 272.181 45.565L270.221 42.625C273.138 40.875 275.436 40 277.116 40C278.073 40 278.749 40.21 279.146 40.63C279.543 41.0267 279.741 41.68 279.741 42.59C279.741 42.94 279.309 44.9933 278.446 48.75C277.583 52.5067 277.151 55.19 277.151 56.8C277.151 58.41 277.513 59.53 278.236 60.16C276.929 61.3033 275.541 61.875 274.071 61.875ZM294.325 44.655C293.462 44.9117 292.774 45.285 292.26 45.775C291.747 46.2417 291.292 46.9183 290.895 47.805C294.839 48.3883 297.615 49.2283 299.225 50.325C300.835 51.4217 301.64 52.985 301.64 55.015C301.64 56.2983 301.279 57.4183 300.555 58.375C299.832 59.3083 298.922 60.02 297.825 60.51C295.679 61.42 293.567 61.875 291.49 61.875C285.587 61.875 282.635 60.6033 282.635 58.06C282.635 56.7767 283.207 55.4933 284.35 54.21C284.934 55.0267 285.809 55.7267 286.975 56.31C288.165 56.8933 289.32 57.185 290.44 57.185C292.377 57.185 293.544 56.3333 293.94 54.63C290.394 54.21 287.827 53.4167 286.24 52.25C284.654 51.0833 283.86 49.4383 283.86 47.315C283.86 45.635 284.409 44.2233 285.505 43.08C286.625 41.9367 288.002 41.1433 289.635 40.7C291.292 40.2333 293.147 40 295.2 40C297.277 40 298.98 40.3967 300.31 41.19C301.664 41.96 302.34 42.905 302.34 44.025C302.34 45.145 301.944 46.0083 301.15 46.615C300.38 47.2217 299.529 47.525 298.595 47.525C297.685 47.525 296.845 47.28 296.075 46.79C295.329 46.3 294.745 45.5883 294.325 44.655ZM306.071 48.365C305.907 47.7117 305.826 47.105 305.826 46.545C305.826 45.4017 306.164 44.5383 306.841 43.955C307.517 43.3717 308.392 43.08 309.466 43.08C309.466 41.8667 309.151 40.5483 308.521 39.125C309.664 38.285 310.702 37.655 311.636 37.235C312.592 36.7917 313.596 36.57 314.646 36.57C315.696 36.57 316.419 36.7683 316.816 37.165C317.236 37.5383 317.446 38.1217 317.446 38.915C317.446 39.7083 317.282 40.945 316.956 42.625C317.889 42.485 318.834 42.2867 319.791 42.03C319.954 42.52 320.036 43.15 320.036 43.92C320.036 44.69 319.732 45.4133 319.126 46.09C318.542 46.7433 317.679 47.07 316.536 47.07H316.011C315.171 50.8733 314.751 53.8017 314.751 55.855C314.751 57.9083 315.112 59.3433 315.836 60.16C314.529 61.3033 313.141 61.875 311.671 61.875C310.201 61.875 309.139 61.4433 308.486 60.58C307.856 59.6933 307.541 58.3283 307.541 56.485C307.541 55.365 307.949 52.425 308.766 47.665C307.832 47.8283 306.934 48.0617 306.071 48.365Z" fill="#00B94A"/>
</svg>
